<?xml version="1.0" encoding="iso-8859-1"?>
<!--<svg xmlns="http://www.w3.org/2000/svg" xmlns:xlink="http://www.w3.org/1999/xlink" version="1.1" id="Capa_1" x="0px" y="0px" viewBox="0 0 409.6 409.6" style="enable-background:new 0 0 409.6 409.6;" xml:space="preserve">-->
<svg version="1.1" id="Capa_1" xmlns="http://www.w3.org/2000/svg" xmlns:xlink="http://www.w3.org/1999/xlink" height="512" width="512"
	 viewBox="0 0 491.52 491.52" style="enable-background:new 0 0 491.52 491.52;" xml:space="preserve">
<circle style="fill:#45B39C;" cx="204.8" cy="204.8" r="204.8"/>
<path style="opacity:0.1;enable-background:new    ;" d="M409.6,204.8c0-7.851-0.485-15.585-1.345-23.207l-94.12-94.12H175.041  v12.757H95.468V322.14l86.114,86.113c7.625,0.861,15.363,1.347,23.218,1.347C317.908,409.6,409.6,317.908,409.6,204.8z"/>
<polygon style="fill:#2F4859;" points="175.049,253.112 175.049,87.467 314.131,87.467 314.131,272.39 199.519,272.39 "/>
<g>
	<rect x="217.442" y="163.571" style="fill:#64798A;" width="81.963" height="10.637"/>
	<rect x="215.68" y="226.419" style="fill:#64798A;" width="81.963" height="10.637"/>
	<rect x="215.68" y="205.982" style="fill:#64798A;" width="81.963" height="10.637"/>
	<rect x="215.68" y="184.691" style="fill:#64798A;" width="81.963" height="10.637"/>
	<rect x="218.325" y="121.395" style="fill:#64798A;" width="81.963" height="10.637"/>
	<rect x="216.538" y="142.579" style="fill:#64798A;" width="81.963" height="10.637"/>
</g>
<polygon style="fill:#D5D6DB;" points="262.364,123.362 262.364,322.133 95.469,322.133 95.469,100.229 233,100.229 "/>
<g>
	<rect x="113.139" y="218.069" style="fill:#64798A;" width="98.347" height="12.762"/>
	<rect x="115.285" y="142.635" style="fill:#64798A;" width="98.347" height="12.762"/>
	<rect x="115.285" y="167.168" style="fill:#64798A;" width="98.347" height="12.762"/>
	<rect x="115.285" y="192.683" style="fill:#64798A;" width="98.347" height="12.762"/>
	<rect x="112.085" y="268.642" style="fill:#64798A;" width="98.347" height="12.762"/>
	<rect x="114.202" y="243.243" style="fill:#64798A;" width="98.347" height="12.762"/>
</g>
<polygon style="fill:#3A556A;" points="233,100.229 262.364,123.362 233,123.362 "/>
<g>
</g>
<g>
</g>
<g>
</g>
<g>
</g>
<g>
</g>
<g>
</g>
<g>
</g>
<g>
</g>
<g>
</g>
<g>
</g>
<g>
</g>
<g>
</g>
<g>
</g>
<g>
</g>
<g>
</g>
</svg>
